PathFileType	4	(X/Y/Z)	69_2_43_p0_0-360_filt_butterworth.trc
DataRate	CameraRate	NumFrames	NumMarkers	Units	OrigDataRate	OrigDataStartFrame	OrigNumFrames
50.0	50.0	5	27	m	50.0	0	360
Frame#	Time	RHip			RKnee			RAnkle			RBigToe			RSmallToe			RHeel			LHip			LKnee			LAnkle			LBigToe			LSmallToe			LHeel			Neck			Head			Nose			RShoulder			RElbow			RWrist			RThumb			RIndex			RPinky			LShoulder			LElbow			LWrist			LThumb			LIndex			LPinky			
		X1	Y1	Z1	X2	Y2	Z2	X3	Y3	Z3	X4	Y4	Z4	X5	Y5	Z5	X6	Y6	Z6	X7	Y7	Z7	X8	Y8	Z8	X9	Y9	Z9	X10	Y10	Z10	X11	Y11	Z11	X12	Y12	Z12	X13	Y13	Z13	X14	Y14	Z14	X15	Y15	Z15	X16	Y16	Z16	X17	Y17	Z17	X18	Y18	Z18	X19	Y19	Z19	X20	Y20	Z20	X21	Y21	Z21	X22	Y22	Z22	X23	Y23	Z23	X24	Y24	Z24	X25	Y25	Z25	X26	Y26	Z26	X27	Y27	Z27	
0	0.0	0.27657277014056436	0.5840110484869627	0.493772396360657	0.23928030544584125	0.5773202522386153	0.9201619625365084	0.19787038157839054	0.5981233224780721	1.3219182735036852	0.24652008338620984	0.4692201670649583	1.357063188720557	0.2867454730462876	0.5028938755715537	1.3487033927564713	0.1493912919789535	0.668221401215392	1.3908160809366885	0.09486442128920525	0.49491745482063687	0.4836947593858072	0.0406787243814113	0.536852596373008	0.9191560891432903	0.031954100010684106	0.5598985951809468	1.3312729392643845	0.11515826291628328	0.4040815044492154	1.3344244785415005	0.060837861144949865	0.4064609706179631	1.3169469044749502	0.0248558023950205	0.6015150704550248	1.3867238362585115	0.2076295852905746	0.5394545795695147	-0.016884684644208937	0.24991178591008933	0.48555200646791513	-0.2597688998724349	0.2565724294181874	0.44079879246245174	-0.1356494588218505	0.35605030534335363	0.5564759857322478	0.06408197349322112	0.3793499768728549	0.5848155111181402	0.3293165325275842	0.4332482664073455	0.465724678651677	0.5342839890184501	0.40439031768820044	0.4538033556453652	0.6494747840022131	0.4308441157054259	0.4487135660672471	0.678873567712648	0.4300235461787554	0.5088388285247366	0.6588089989455779	0.056901692329750696	0.49709950256978386	0.0484887562752343	0.02971244824312058	0.43782245788593965	0.30267720924692665	0.0006908861944941165	0.34122385992543036	0.49467431468574957	0.03537753610979163	0.3007858640647652	0.591191906784615	0.010147569832841607	0.2991063399283614	0.6242781665735734	-0.036937475735564954	0.3529180134368526	0.6224168186060357
1	0.02	0.27759474105355797	0.5859735424082807	0.5027730724824233	0.23719715373264247	0.5718727893905332	0.9257582173836985	0.20037141029001232	0.59370486845569	1.3231769660246033	0.24695864061518424	0.4605977760101311	1.348820875664703	0.2930827194230151	0.4941515310560883	1.3422379565651368	0.15151930792336013	0.6769649548775122	1.3949375554048933	0.09099079034326962	0.5052931813239644	0.493805937884113	0.040977788524428675	0.5368933115379426	0.9207365646551215	0.0315869182295591	0.5604256670859771	1.334952983892777	0.11694393386286026	0.39032989481653496	1.3266683051010648	0.057799283499018056	0.40972079981092285	1.3190563356088134	0.032032184055721925	0.5931201564052351	1.3875656584030096	0.20812193797732453	0.538950235057465	-0.0170486951275927	0.247968904301731	0.4834984497220127	-0.2599900084047091	0.25647443944358095	0.4411190984991435	-0.13575372755811493	0.3560028612034055	0.5604876153225788	0.06586906782643365	0.37956756958962573	0.5955124856972817	0.33602310084283665	0.43501095911324716	0.470360683934527	0.5340244080025058	0.4158608430032873	0.45446889153615666	0.6492204983167702	0.4375035393822243	0.450364749627676	0.6758884438908843	0.437318791078256	0.5245590431081187	0.6639950938528484	0.05675697124621812	0.49819602473679925	0.04889840093369069	0.01942085397675626	0.4431447019403974	0.30229801957181823	-0.010081357007907134	0.3521679446753115	0.4967807251817812	0.02318838277458949	0.30973007389464785	0.5971001851852921	-0.023825666574082326	0.3233294572041064	0.6290723170156419	-0.04361739224734749	0.3554160055559523	0.6228229451602633
2	0.04	0.27889491631376684	0.5879329194542867	0.507500176055599	0.2359230740029625	0.5658053456723477	0.9277200817969516	0.20137075090860934	0.591876924204431	1.32302816851085	0.24758794413379498	0.4528181843896474	1.3440672261992006	0.29547701041002294	0.48941156778205713	1.3389364103078039	0.1522721232303409	0.6841269036334552	1.3984602496549114	0.08883712346036572	0.5104085200370587	0.4986839205738213	0.04324587088425215	0.5346640640752264	0.9200014574851785	0.03136991771766948	0.5607863055278108	1.337354422785418	0.11887607064595584	0.3757333570061736	1.3185357605875598	0.05661307774624717	0.41075849645569057	1.3203225427526144	0.035211813486864654	0.5921724622590748	1.3895656719527492	0.2104190613999955	0.536014141681203	-0.017384606510548496	0.2470377096256442	0.48225297067299583	-0.2609369400677586	0.25641753682524643	0.441412310884904	-0.13589367284232415	0.35581825672232875	0.5625207429484281	0.06782495894658466	0.3802950659885632	0.6048325110829273	0.3402418023286184	0.43646000435320403	0.4794197019702646	0.5357224974280062	0.42443770984190377	0.45658241502786723	0.6474376985879519	0.4419613223589932	0.4517529981861589	0.6709827276256372	0.44243309810352316	0.5441413873043589	0.6691011692569463	0.05669815759087224	0.49849981895533557	0.04924113804440645	0.01170814464846531	0.44729894117216373	0.3024204302923832	-0.02006751142199136	0.3618570067620799	0.4975632731336976	0.01110768452284206	0.3196932935716247	0.601054665697211	-0.046174711386489035	0.3387297088155052	0.6319981965111781	-0.05094057010842362	0.35722613826050925	0.622390450070246
3	0.06	0.2794289151476979	0.5889698310368474	0.5081746422217622	0.2355972515800838	0.5614140293439681	0.9271564573158709	0.20012458897226648	0.5934960152879185	1.3241542101915316	0.2483072109395547	0.44675288646637457	1.3425856715694011	0.29449002949328285	0.48836744188118825	1.3385096066724453	0.15202498757202146	0.6878859005126464	1.4003908433907806	0.08753887640476425	0.5103898302958038	0.4984324749281835	0.04683597274166539	0.5306934886973006	0.9169749957566933	0.031185456729455774	0.5609948464137219	1.339107990133066	0.12020461456396535	0.3660767150827662	1.3132112401592104	0.05812275025362692	0.40873912027037723	1.3201187483011376	0.03484666507081715	0.5970719986324029	1.3922685157519892	0.21390192675954633	0.5314574533126788	-0.017833990760883073	0.24703183334424217	0.48179217246838707	-0.26234657132140904	0.2564642830513525	0.440641251574834	-0.13597936179973796	0.3556346476742075	0.5611532201917152	0.06899212919620946	0.3813977019179816	0.6118961974439977	0.34166089424875623	0.43714189504090856	0.4933761146341086	0.5398474925057928	0.4308634402050171	0.4568916310420289	0.6440657018910962	0.4437746805546531	0.4545382540718561	0.665968038885818	0.44740889518045696	0.5610601346168756	0.6726071364633741	0.057506352289722534	0.49716145708305065	0.048979072332052495	0.006809148186830432	0.4500688144878593	0.30237041156966094	-0.027791250726464652	0.36798944835809405	0.49641059413999744	-0.001489035603436351	0.3306991975451238	0.601195327703309	-0.05472682364788008	0.34242434618498363	0.6309961226747879	-0.05959023137049282	0.35953450573303575	0.6213226997283068
4	0.08	0.27843612669258694	0.5884247176858277	0.507549661048846	0.2354822708927932	0.5608591677453223	0.926843664933463	0.198150305927052	0.5961157023213197	1.3275272162462313	0.2487939047097335	0.44380459422432883	1.3417810586539085	0.29309122777827734	0.48737831310496976	1.3383378676110758	0.1517693340911126	0.688799749330844	1.401103040864272	0.08585748696281634	0.5087097496699274	0.4967066409817347	0.049349258007583593	0.527683163787469	0.914907295455013	0.03102689381095116	0.5612506784829209	1.3410802355667084	0.12052083498095748	0.3639648987730251	1.3116799668878347	0.06090411958653752	0.405069468270424	1.318349323328678	0.03384723599981544	0.6013955400721616	1.394843003282771	0.21637360042918047	0.5282351828704803	-0.01840096530256843	0.24727926171408743	0.48169721107683666	-0.26331721640607314	0.2566882867189287	0.4374776736755718	-0.1362261661320251	0.3562212366103212	0.5572816405703721	0.06841265597030148	0.38283592985050896	0.6154999675768802	0.3407276813243523	0.4380682086045744	0.5107421938335244	0.5446446279220235	0.4366716861662671	0.45598652712338816	0.6413270188308311	0.4451222389581545	0.4636476875167189	0.6635336514074021	0.4553634744177172	0.56922808023665	0.673267642873502	0.06009726438876271	0.49366593131854986	0.04751647502080975	0.0022194295897613367	0.4527816856223057	0.30145278038496015	-0.033629325846585935	0.36950249432121895	0.4936566571325862	-0.015686100364844358	0.3391978864896331	0.5974886104453863	-0.05642799612967558	0.33833941389075856	0.6257000155715159	-0.07299898847923351	0.36725367574230533	0.6224340682985192
